<?xml version="1.0" encoding="iso-8859-1"?>
<!-- Generator: Adobe Illustrator 18.1.1, SVG Export Plug-In . SVG Version: 6.00 Build 0)  -->
<svg version="1.1" id="Capa_1" xmlns="http://www.w3.org/2000/svg" xmlns:xlink="http://www.w3.org/1999/xlink" x="0px" y="0px"
	 viewBox="0 0 24.538 24.538" style="enable-background:new 0 0 24.538 24.538;" xml:space="preserve">
<g>
	<g>
		<path style="fill:#030104;" d="M22.751,9.641h-1.527c0,0-2.271-5.293-9.329-5.33c0.039,0-5.526-0.395-5.605,3.802l-4.746-0.04
			c0,0-0.47-7.998,8.47-8.036C10.013-0.003,20.203-0.942,22.751,9.641z"/>
		<path style="fill:#030104;" d="M1.585,9.681l4.82-0.04c0,0,2.51,4.979,8.193,4.979c-0.036,0,5.84,0.354,7.059-3.292h1.333
			c0,0,0.233,2.389-1.845,4.351c-2.078,1.96-8.039,7.449-10.701,8.859c-0.042,0-0.042-6.192-0.042-6.192S1.543,15.641,1.585,9.681z"
			/>
		<circle style="fill:#030104;" cx="14.717" cy="10.112" r="3.137"/>
	</g>
</g>
<g>
</g>
<g>
</g>
<g>
</g>
<g>
</g>
<g>
</g>
<g>
</g>
<g>
</g>
<g>
</g>
<g>
</g>
<g>
</g>
<g>
</g>
<g>
</g>
<g>
</g>
<g>
</g>
<g>
</g>
</svg>
